<?xml version="1.0" encoding="UTF-8"?>
<svg id="Layer_1" data-name="Layer 1" xmlns="http://www.w3.org/2000/svg" xmlns:xlink="http://www.w3.org/1999/xlink" viewBox="0 0 2000 1425">
  <defs>
    <style>
      .cls-1 {
        fill: url(#linear-gradient);
      }

      .cls-1, .cls-2, .cls-3, .cls-4 {
        stroke-width: 0px;
      }

      .cls-2 {
        fill: url(#linear-gradient-2);
      }

      .cls-3 {
        fill: url(#linear-gradient-3);
      }

      .cls-4 {
        fill: #fff;
      }
    </style>
    <linearGradient id="linear-gradient" x1="417.68" y1="485.62" x2="1596.62" y2="485.62" gradientUnits="userSpaceOnUse">
      <stop offset="0" stop-color="#9648fe"/>
      <stop offset="1" stop-color="#13f194"/>
    </linearGradient>
    <linearGradient id="linear-gradient-2" x1="1361.15" y1="1262.84" x2="1628.42" y2="1262.84" gradientUnits="userSpaceOnUse">
      <stop offset="0" stop-color="#9648fe"/>
      <stop offset=".86" stop-color="#9648fe"/>
      <stop offset="1" stop-color="#9648fe"/>
    </linearGradient>
    <linearGradient id="linear-gradient-3" x1="1660.87" y1="1262.84" x2="1928.15" y2="1262.84" xlink:href="#linear-gradient"/>
  </defs>
  <path class="cls-1" d="M1374.02,736.16s182.29-47.63,222.6-219.85c0,0-78.78,51.3-180.46,80.61,0,0,86.11-76.95,106.26-183.21,0,0-53.13-65.04-243.67-45.8,0,0-43.97-229.93-345.35-342.6,0,0,43.97,183.21,14.66,245.5,0,0-95.27-88.86-263.82-123.67,0,0-56.79,179.54,28.4,305.96,0,0-184.12,33.89-294.97-43.05,0,0,34.81,180.69,265.19,234.62,0,0-84.73,62.18-224.89,38.36,0,0,113.59,165.8,351.76,122.75,0,0,111.76,98.02,206.11,140.15,0,0,54.05-6.41,107.18-43.05,0,0,192.17,42.14,327.84-87.48,0,0-75.93,3.21-151.05-20.61,0,0,34.81-16.49,74.2-58.63ZM809.74,459.52c178.63,118.17,230.84,293.13,230.84,293.13-315.12,58.63-230.84-293.13-230.84-293.13ZM1119.36,764.56s56.79-98.93,194.04-155.18c0,0,42.3,207.39-194.04,155.18Z"/>
  <g>
    <path class="cls-4" d="M86.15,1157h262.44v40.75h-217.2v30.04h180.95v40.75h-180.95v100.14h-45.24v-211.68Z"/>
    <path class="cls-4" d="M613.09,1157c5.53,0,10.48,1.09,14.85,3.28,4.37,2.19,8.11,5.07,11.22,8.63,3.11,3.57,5.53,7.77,7.25,12.6,1.73,4.84,2.59,9.9,2.59,15.19v132.26c0,5.3-.86,10.36-2.59,15.19-1.73,4.83-4.14,9.09-7.25,12.78-3.11,3.68-6.85,6.56-11.22,8.63-4.37,2.07-9.32,3.11-14.85,3.11h-196.14c-5.53,0-10.48-1.04-14.85-3.11-4.37-2.07-8.11-4.95-11.22-8.63-3.11-3.68-5.52-7.94-7.25-12.78-1.73-4.84-2.59-9.9-2.59-15.19v-132.26c0-5.3.86-10.36,2.59-15.19,1.73-4.84,4.14-9.04,7.25-12.6,3.11-3.57,6.85-6.45,11.22-8.63,4.37-2.19,9.32-3.28,14.85-3.28h196.14ZM436.29,1197.74c-6.68,0-10.01,4.14-10.01,12.43v105.32c0,8.29,3.34,12.43,10.01,12.43h157.47c6.68,0,10.01-4.14,10.01-12.43v-105.32c0-8.29-3.34-12.43-10.01-12.43h-157.47Z"/>
    <path class="cls-4" d="M726.69,1157l128.11,51.45,128.11-51.45h45.24v211.68h-45.24v-167.48l-105.67,42.82v124.66h-44.89v-124.66l-105.67-42.82v167.48h-45.24v-211.68h45.24Z"/>
    <path class="cls-4" d="M1292.66,1157c5.53,0,10.48,1.09,14.85,3.28,4.37,2.19,8.11,5.07,11.22,8.63,3.11,3.57,5.53,7.77,7.25,12.6,1.73,4.84,2.59,9.9,2.59,15.19v132.26c0,5.3-.86,10.36-2.59,15.19-1.73,4.83-4.14,9.09-7.25,12.78-3.11,3.68-6.85,6.56-11.22,8.63-4.37,2.07-9.32,3.11-14.85,3.11h-196.14c-5.53,0-10.48-1.04-14.85-3.11-4.37-2.07-8.11-4.95-11.22-8.63-3.11-3.68-5.52-7.94-7.25-12.78-1.73-4.84-2.59-9.9-2.59-15.19v-132.26c0-5.3.86-10.36,2.59-15.19,1.73-4.84,4.14-9.04,7.25-12.6,3.11-3.57,6.85-6.45,11.22-8.63,4.37-2.19,9.32-3.28,14.85-3.28h196.14ZM1115.85,1197.74c-6.68,0-10.01,4.14-10.01,12.43v105.32c0,8.29,3.34,12.43,10.01,12.43h157.47c6.68,0,10.01-4.14,10.01-12.43v-105.32c0-8.29-3.34-12.43-10.01-12.43h-157.47Z"/>
    <g>
      <path class="cls-2" d="M1618.58,1168.91c-3.11-3.57-6.85-6.45-11.22-8.63-4.37-2.19-9.32-3.28-14.85-3.28h-231.36v40.75h212.03c6.68,0,10.01,4.14,10.01,12.43v6.91c-.69,7.14-4.03,10.71-10.01,10.71h-171.28v40.75h171.28c5.98,0,9.32,3.57,10.01,10.71v36.26c0,8.29-3.34,12.43-10.01,12.43h-212.03v40.75h231.36c5.53,0,10.48-1.09,14.85-3.28,4.38-2.19,8.12-5.07,11.22-8.63,3.11-3.57,5.53-7.77,7.25-12.6,1.73-4.84,2.59-9.9,2.59-15.19v-53.87c0-5.53-1.27-10.53-3.8-15.02-2.53-4.49-5.64-8.35-9.32-11.57,3.22-2.99,6.21-6.91,8.98-11.74,2.76-4.84,4.14-9.9,4.14-15.19v-24.86c0-5.3-.86-10.36-2.59-15.19-1.73-4.84-4.14-9.04-7.25-12.6Z"/>
      <path class="cls-3" d="M1925.56,1181.51c-1.73-4.84-4.14-9.04-7.25-12.6-3.11-3.57-6.85-6.45-11.22-8.63-4.37-2.19-9.32-3.28-14.85-3.28h-231.36v40.75h212.02c6.68,0,10.01,4.14,10.01,12.43v105.32c0,8.29-3.34,12.43-10.01,12.43h-166.79v-100.14h-45.24v140.89h231.36c5.53,0,10.48-1.04,14.85-3.11,4.37-2.07,8.11-4.95,11.22-8.63,3.11-3.68,5.53-7.94,7.25-12.78,1.73-4.84,2.59-9.9,2.59-15.19v-132.26c0-5.3-.86-10.36-2.59-15.19Z"/>
    </g>
  </g>
</svg>